# File produced by Open Asset Import Library (http://www.assimp.sf.net)
# (assimp v3.1.206520482)

mtllib Vaultdoor.mtl

# 78 vertex positions
v 0.231959 -0.315468 -0.935385
v 0.185727 -0.315468 -0.935385
v 0.185727 -0.291784 -0.976692
v 0.231959 -0.291784 -0.976692
v 0.185727 -0.254895 -1.00947
v 0.231959 -0.254895 -1.00947
v 0.185727 -0.208411 -1.03052
v 0.231959 -0.208411 -1.03052
v 0.185727 -0.156884 -1.03777
v 0.231959 -0.156884 -1.03777
v 0.185727 -0.105357 -1.03052
v 0.231959 -0.105357 -1.03052
v 0.185727 -0.0588738 -1.00947
v 0.231959 -0.0588738 -1.00947
v 0.185727 -0.0219844 -0.976692
v 0.231959 -0.0219844 -0.976692
v 0.185727 0.0017 -0.935385
v 0.231959 0.0017 -0.935385
v 0.185727 0.0098611 -0.889596
v 0.231959 0.0098611 -0.889596
v 0.185727 0.0017 -0.843807
v 0.231959 0.0017 -0.843807
v 0.185727 -0.0219844 -0.8025
v 0.231959 -0.0219844 -0.8025
v 0.185727 -0.0588738 -0.769719
v 0.231959 -0.0588738 -0.769719
v 0.185727 -0.105357 -0.748672
v 0.231959 -0.105357 -0.748672
v 0.185727 -0.156884 -0.74142
v 0.231959 -0.156884 -0.74142
v 0.185727 -0.208411 -0.748672
v 0.231959 -0.208411 -0.748672
v 0.185727 -0.254895 -0.769719
v 0.231959 -0.254895 -0.769719
v 0.185727 -0.291784 -0.8025
v 0.231959 -0.291784 -0.8025
v 0.185727 -0.315468 -0.843807
v 0.231959 -0.315468 -0.843807
v 0.185727 -0.323629 -0.889596
v 0.231959 -0.323629 -0.889596
v 0.185727 -0.156884 -0.889596
v 0.231959 -0.156884 -0.889596
v -0.792715 2.74077 1.79277
v -0.792715 -2.74077 1.79277
v 0.161014 -2.74077 1.79277
v 0.161014 2.74077 1.79277
v -0.792715 2.74077 -1.79277
v 0.161014 2.74077 -1.79277
v -0.792715 -2.74077 -1.79277
v 0.161014 -2.74077 -1.79277
v 0.0818425 0.991028 -0.622438
v 0.0818425 0.259019 -0.622438
v 0.0818425 0.259019 -1.17625
v 0.0818425 0.991028 -1.17625
v 0.161014 -2.50467 1.56663
v 0.161014 -2.50467 -1.56663
v 0.161014 2.50467 -1.56663
v 0.161014 2.50467 1.56663
v 0.0168316 -2.50467 1.56663
v 0.0168316 -2.50467 -1.56663
v 0.0168316 2.50467 -1.56663
v 0.0168316 2.50467 1.56663
v 0.0168316 -0.692954 -0.465908
v 0.0168316 -0.692954 -1.33278
v 0.0168316 1.15404 -1.33278
v 0.0168316 1.15404 -0.465908
v 0.205989 -0.692954 -0.465908
v 0.205989 -0.692954 -1.33278
v 0.205989 1.15404 -1.33278
v 0.205989 1.15404 -0.465908
v 0.205989 0.210338 -0.585608
v 0.205989 0.210338 -1.21308
v 0.205989 1.03971 -1.21308
v 0.205989 1.03971 -0.585608
v 0.205989 0.259019 -0.622438
v 0.205989 0.259019 -1.17625
v 0.205989 0.991028 -1.17625
v 0.205989 0.991028 -0.622438

# 190 UV coordinates
vt 0.0863001 0.527821 0
vt 0.0819575 0.527821 0
vt 0.0819575 0.523941 0
vt 0.0863001 0.523941 0
vt 0.0819575 0.520861 0
vt 0.0863001 0.520861 0
vt 0.0653442 0.539274 0
vt 0.0610015 0.539274 0
vt 0.0610015 0.534908 0
vt 0.0653442 0.534908 0
vt 0.0610015 0.530068 0
vt 0.0653442 0.530068 0
vt 0.0610015 0.525228 0
vt 0.0653442 0.525228 0
vt 0.0610015 0.520861 0
vt 0.0653442 0.520861 0
vt 0.0758222 0.543382 0
vt 0.0714795 0.543382 0
vt 0.0714795 0.540303 0
vt 0.0758222 0.540303 0
vt 0.0714795 0.536423 0
vt 0.0758222 0.536423 0
vt 0.0714795 0.532121 0
vt 0.0758222 0.532121 0
vt 0.0714795 0.527821 0
vt 0.0758222 0.527821 0
vt 0.0714795 0.52394 0
vt 0.0758222 0.52394 0
vt 0.0714795 0.520861 0
vt 0.0758222 0.520861 0
vt 0.0548662 0.539274 0
vt 0.0505236 0.539274 0
vt 0.0505236 0.534908 0
vt 0.0548662 0.534908 0
vt 0.0505236 0.530068 0
vt 0.0548662 0.530068 0
vt 0.0505236 0.525228 0
vt 0.0548662 0.525228 0
vt 0.0505236 0.520861 0
vt 0.0548662 0.520861 0
vt 0.0863001 0.543382 0
vt 0.0819575 0.543382 0
vt 0.0819575 0.540303 0
vt 0.0863001 0.540303 0
vt 0.0819575 0.536423 0
vt 0.0863001 0.536423 0
vt 0.0819575 0.532122 0
vt 0.0863001 0.532122 0
vt 0.132145 0.523853 0
vt 0.136025 0.521628 0
vt 0.140326 0.536524 0
vt 0.129066 0.527318 0
vt 0.127089 0.531684 0
vt 0.126408 0.536524 0
vt 0.127089 0.541364 0
vt 0.129066 0.54573 0
vt 0.132145 0.549195 0
vt 0.136025 0.55142 0
vt 0.140326 0.552187 0
vt 0.144627 0.55142 0
vt 0.148507 0.549195 0
vt 0.151586 0.54573 0
vt 0.153563 0.541364 0
vt 0.154245 0.536524 0
vt 0.153563 0.531684 0
vt 0.151586 0.527318 0
vt 0.148507 0.523853 0
vt 0.144627 0.521628 0
vt 0.140326 0.520861 0
vt 0.110655 0.521628 0
vt 0.114535 0.523853 0
vt 0.106354 0.536524 0
vt 0.117614 0.527318 0
vt 0.119591 0.531684 0
vt 0.120272 0.536524 0
vt 0.119591 0.541364 0
vt 0.117614 0.54573 0
vt 0.114535 0.549195 0
vt 0.110655 0.55142 0
vt 0.106354 0.552187 0
vt 0.102053 0.55142 0
vt 0.0981728 0.549195 0
vt 0.0950936 0.54573 0
vt 0.0931166 0.541364 0
vt 0.0924354 0.536524 0
vt 0.0931166 0.531684 0
vt 0.0950936 0.527318 0
vt 0.0981728 0.523853 0
vt 0.102053 0.521628 0
vt 0.106354 0.520861 0
vt 0.00199203 0.51687 0
vt 0.00199203 0.00197886 0
vt 0.0915774 0.00197886 0
vt 0.0915774 0.51687 0
vt 0.607974 0.857658 0
vt 0.607974 0.520861 0
vt 0.697559 0.520861 0
vt 0.697559 0.857658 0
vt 0.0996345 0.51687 0
vt 0.0996345 0.00197884 0
vt 0.18922 0.00197884 0
vt 0.18922 0.51687 0
vt 0.512253 0.857658 0
vt 0.512253 0.520861 0
vt 0.601839 0.520861 0
vt 0.601839 0.857658 0
vt 0.231566 0.58962 0
vt 0.231566 0.520861 0
vt 0.283586 0.520861 0
vt 0.283586 0.58962 0
vt 0.197082 0.51687 0
vt 0.197082 0.00197886 0
vt 0.533879 0.00197886 0
vt 0.533879 0.51687 0
vt 0.561339 0.0241563 0
vt 0.540098 0.00197886 0
vt 0.876894 0.00197886 0
vt 0.855653 0.0241563 0
vt 0.876894 0.51687 0
vt 0.855653 0.494692 0
vt 0.540098 0.51687 0
vt 0.561339 0.494692 0
vt 0.492575 0.520861 0
vt 0.506118 0.520861 0
vt 0.506118 0.815174 0
vt 0.492575 0.815174 0
vt 0.883113 0.00197886 0
vt 0.896657 0.00197886 0
vt 0.896657 0.472515 0
vt 0.883113 0.472515 0
vt 0.472896 0.520861 0
vt 0.486439 0.520861 0
vt 0.486439 0.815175 0
vt 0.472896 0.815175 0
vt 0.904552 0.00197884 0
vt 0.918095 0.00197884 0
vt 0.918095 0.472515 0
vt 0.904552 0.472515 0
vt 0.894615 0.691039 0
vt 0.703695 0.520861 0
vt 0.998008 0.520861 0
vt 0.976041 0.691039 0
vt 0.998008 0.991397 0
vt 0.976041 0.86453 0
vt 0.703695 0.991397 0
vt 0.894615 0.86453 0
vt 0.331393 0.602288 0
vt 0.313625 0.602288 0
vt 0.313625 0.520861 0
vt 0.331393 0.520861 0
vt 0.466761 0.694353 0
vt 0.448993 0.694353 0
vt 0.448993 0.520861 0
vt 0.466761 0.520861 0
vt 0.30749 0.602288 0
vt 0.289722 0.602288 0
vt 0.289722 0.520861 0
vt 0.30749 0.520861 0
vt 0.442858 0.694353 0
vt 0.42509 0.694353 0
vt 0.42509 0.520861 0
vt 0.442858 0.520861 0
vt 0.348772 0.605709 0
vt 0.337528 0.520861 0
vt 0.418954 0.520861 0
vt 0.407711 0.605709 0
vt 0.418954 0.694353 0
vt 0.407711 0.683613 0
vt 0.337528 0.694353 0
vt 0.348772 0.683613 0
vt 0.352231 0.610282 0
vt 0.404251 0.610282 0
vt 0.404251 0.679041 0
vt 0.352231 0.679041 0
vt 0.178176 0.520861 0
vt 0.189838 0.520861 0
vt 0.189838 0.572881 0
vt 0.178176 0.572881 0
vt 0.21377 0.520861 0
vt 0.225431 0.520861 0
vt 0.225431 0.58962 0
vt 0.21377 0.58962 0
vt 0.16038 0.520861 0
vt 0.172041 0.520861 0
vt 0.172041 0.572881 0
vt 0.16038 0.572881 0
vt 0.195973 0.520861 0
vt 0.207634 0.520861 0
vt 0.207634 0.58962 0
vt 0.195973 0.58962 0

# 61 vertex normals
vn 0 -0.939189 -0.343401
vn 0 -0.774182 -0.632963
vn 0 -0.542408 -0.840115
vn 0 -0.277405 -0.960753
vn 0 0 -1
vn 0 0.277405 -0.960753
vn 0 0.542408 -0.840115
vn 0 0.774182 -0.632963
vn 0 0.939189 -0.343402
vn 0 1 0
vn 0 0.939188 0.343402
vn 0 0.774182 0.632963
vn 0 0.542408 0.840115
vn 0 0.277405 0.960753
vn 0 -5.91105e-07 1
vn 0 -0.277405 0.960753
vn 0 -0.542407 0.840116
vn 0 -0.774182 0.632963
vn 0 -0.939188 0.343402
vn 0 -1 1.09405e-06
vn -1 0 0
vn -1 -8.09996e-15 0
vn -1 0 0
vn -1 1.31429e-07 0
vn -1 1.161e-07 0
vn -1 -2.32201e-07 0
vn -1 -3.77995e-08 0
vn -1 2.62775e-07 0
vn -1 -2.32335e-07 0
vn -1 -2.03233e-13 0
vn -1 2.32335e-07 0
vn -1 -2.62775e-07 0
vn -1 -9.36297e-08 0
vn -1 1.16101e-07 0
vn 1 1.161e-07 0
vn 1 1.31429e-07 0
vn 1 3.97854e-08 0
vn 1 0 0
vn 1 -2.2514e-07 0
vn 1 -2.5558e-07 0
vn 1 4.87916e-07 0
vn 1 4.6467e-07 0
vn 0 0 1
vn 0 -1 0
vn 1 -5.6361e-08 0
vn 1 5.6361e-08 0
vn 1 -1.02807e-09 0
vn 1 -1.02807e-09 0
vn 1 1.20667e-09 0
vn 1 1.20667e-09 0
vn 1 8.27952e-09 0
vn 1 8.27952e-09 0
vn 1 2.18042e-08 0
vn 1 2.18042e-08 0
vn 1 -1.45758e-07 0
vn 1 -1.45758e-07 0
vn 1 3.23906e-07 0
vn 1 3.23906e-07 0
vn 1 0 0
vn 0 1 0
vn 0 -1 0

# Mesh 'pCylinder6_pCylinder6' with 148 faces
g pCylinder6_pCylinder6
usemtl lambert1
f 1/1/1 2/2/1 3/3/2
f 3/3/2 4/4/2 1/1/1
f 4/4/2 3/3/2 5/5/3
f 5/5/3 6/6/3 4/4/2
f 6/7/3 5/8/3 7/9/4
f 7/9/4 8/10/4 6/7/3
f 8/10/4 7/9/4 9/11/5
f 9/11/5 10/12/5 8/10/4
f 10/12/5 9/11/5 11/13/6
f 11/13/6 12/14/6 10/12/5
f 12/14/6 11/13/6 13/15/7
f 13/15/7 14/16/7 12/14/6
f 14/17/7 13/18/7 15/19/8
f 15/19/8 16/20/8 14/17/7
f 16/20/8 15/19/8 17/21/9
f 17/21/9 18/22/9 16/20/8
f 18/22/9 17/21/9 19/23/10
f 19/23/10 20/24/10 18/22/9
f 20/24/10 19/23/10 21/25/11
f 21/25/11 22/26/11 20/24/10
f 22/26/11 21/25/11 23/27/12
f 23/27/12 24/28/12 22/26/11
f 24/28/12 23/27/12 25/29/13
f 25/29/13 26/30/13 24/28/12
f 26/31/13 25/32/13 27/33/14
f 27/33/14 28/34/14 26/31/13
f 28/34/14 27/33/14 29/35/15
f 29/35/15 30/36/15 28/34/14
f 30/36/15 29/35/15 31/37/16
f 31/37/16 32/38/16 30/36/15
f 32/38/16 31/37/16 33/39/17
f 33/39/17 34/40/17 32/38/16
f 34/41/17 33/42/17 35/43/18
f 35/43/18 36/44/18 34/41/17
f 36/44/18 35/43/18 37/45/19
f 37/45/19 38/46/19 36/44/18
f 38/46/19 37/45/19 39/47/20
f 39/47/20 40/48/20 38/46/19
f 40/48/20 39/47/20 2/2/1
f 2/2/1 1/1/1 40/48/20
f 3/49/21 2/50/21 41/51/22
f 5/52/21 3/49/21 41/51/22
f 7/53/21 5/52/21 41/51/22
f 9/54/21 7/53/21 41/51/22
f 11/55/23 9/54/21 41/51/22
f 13/56/21 11/55/23 41/51/22
f 15/57/24 13/56/21 41/51/22
f 17/58/25 15/57/24 41/51/22
f 19/59/21 17/58/25 41/51/22
f 21/60/26 19/59/21 41/51/22
f 23/61/27 21/60/26 41/51/22
f 25/62/28 23/61/27 41/51/22
f 27/63/29 25/62/28 41/51/22
f 29/64/30 27/63/29 41/51/22
f 31/65/31 29/64/30 41/51/22
f 33/66/32 31/65/31 41/51/22
f 35/67/33 33/66/32 41/51/22
f 37/68/34 35/67/33 41/51/22
f 39/69/21 37/68/34 41/51/22
f 2/50/21 39/69/21 41/51/22
f 1/70/35 4/71/36 42/72/37
f 4/71/36 6/73/38 42/72/37
f 6/73/38 8/74/38 42/72/37
f 8/74/38 10/75/38 42/72/37
f 10/75/38 12/76/38 42/72/37
f 12/76/38 14/77/38 42/72/37
f 14/77/38 16/78/38 42/72/37
f 16/78/38 18/79/38 42/72/37
f 18/79/38 20/80/38 42/72/37
f 20/80/38 22/81/38 42/72/37
f 22/81/38 24/82/38 42/72/37
f 24/82/38 26/83/39 42/72/37
f 26/83/39 28/84/40 42/72/37
f 28/84/40 30/85/41 42/72/37
f 30/85/41 32/86/42 42/72/37
f 32/86/42 34/87/38 42/72/37
f 34/87/38 36/88/38 42/72/37
f 36/88/38 38/89/38 42/72/37
f 38/89/38 40/90/38 42/72/37
f 40/90/38 1/70/35 42/72/37
f 43/91/43 44/92/43 45/93/43
f 45/93/43 46/94/43 43/91/43
f 47/95/10 43/96/10 46/97/10
f 46/97/10 48/98/10 47/95/10
f 49/99/5 47/100/5 48/101/5
f 48/101/5 50/102/5 49/99/5
f 44/103/44 49/104/44 50/105/44
f 50/105/44 45/106/44 44/103/44
f 51/107/38 52/108/38 53/109/38
f 53/109/38 54/110/38 51/107/38
f 47/111/21 49/112/21 44/113/21
f 44/113/21 43/114/21 47/111/21
f 55/115/45 45/116/45 50/117/45
f 50/117/45 56/118/45 55/115/45
f 56/118/45 50/117/45 48/119/38
f 48/119/38 57/120/38 56/118/45
f 57/120/38 48/119/38 46/121/46
f 46/121/46 58/122/46 57/120/38
f 58/122/46 46/121/46 45/116/45
f 45/116/45 55/115/45 58/122/46
f 59/123/10 55/124/10 56/125/10
f 56/125/10 60/126/10 59/123/10
f 60/127/43 56/128/43 57/129/43
f 57/129/43 61/130/43 60/127/43
f 61/131/44 57/132/44 58/133/44
f 58/133/44 62/134/44 61/131/44
f 62/135/5 58/136/5 55/137/5
f 55/137/5 59/138/5 62/135/5
f 63/139/47 59/140/48 60/141/47
f 60/141/47 64/142/47 63/139/47
f 64/142/47 60/141/47 61/143/38
f 61/143/38 65/144/38 64/142/47
f 65/144/38 61/143/38 62/145/49
f 62/145/49 66/146/50 65/144/38
f 66/146/50 62/145/49 59/140/48
f 59/140/48 63/139/47 66/146/50
f 67/147/44 63/148/44 64/149/44
f 64/149/44 68/150/44 67/147/44
f 68/151/5 64/152/5 65/153/5
f 65/153/5 69/154/5 68/151/5
f 69/155/10 65/156/10 66/157/10
f 66/157/10 70/158/10 69/155/10
f 70/159/43 66/160/43 63/161/43
f 63/161/43 67/162/43 70/159/43
f 71/163/51 67/164/52 68/165/51
f 68/165/51 72/166/51 71/163/51
f 72/166/51 68/165/51 69/167/38
f 69/167/38 73/168/38 72/166/51
f 73/168/38 69/167/38 70/169/53
f 70/169/53 74/170/54 73/168/38
f 74/170/54 70/169/53 67/164/52
f 67/164/52 71/163/51 74/170/54
f 75/171/55 71/163/51 72/166/51
f 72/166/51 76/172/56 75/171/55
f 76/172/38 72/166/51 73/168/38
f 73/168/38 77/173/38 76/172/38
f 77/173/57 73/168/38 74/170/54
f 74/170/54 78/174/58 77/173/57
f 78/174/59 74/170/54 71/163/51
f 71/163/51 75/171/59 78/174/59
f 52/175/60 75/176/60 76/177/60
f 76/177/60 53/178/60 52/175/60
f 53/179/43 76/180/43 77/181/43
f 77/181/43 54/182/43 53/179/43
f 54/183/61 77/184/61 78/185/61
f 78/185/61 51/186/61 54/183/61
f 51/187/5 78/188/5 75/189/5
f 75/189/5 52/190/5 51/187/5

